# xmcd CD database file
#
# Track frame offsets:
#	150
#	32199
#	65955
#	82674
#	111024
#	134513
#	160237
#
# Disc length: 2389 seconds
#
# Revision: 0
# Processed by: cddbd v1.5.2PL0 Copyright (c) Steve Scherf et al.
# Submitted via: CDex 1.70beta2
#
DISCID=5a095307
DTITLE=Holger Scheidt - Flights Falls
DYEAR=2011
DGENRE=Jazz
TTITLE0=I Know Who Did It
TTITLE1=Siebenfüßler
TTITLE2=Pain
TTITLE3=Bopkultur
TTITLE4=Back At Misha's
TTITLE5=Embracing It All (Cherish The Flight Suffer The Fall)
TTITLE6=Kopfnicker
EXTD=YEAR: 2011
EXTT0=
EXTT1=
EXTT2=
EXTT3=
EXTT4=
EXTT5=
EXTT6=
PLAYORDER=
